<svg width="48" height="46" viewBox="0 0 48 46" fill="none" xmlns="http://www.w3.org/2000/svg">
<path d="M48 22.0417C48 35.2735 35.2226 46 22.099 46C8.97541 46 0 38.3881 0 25.1562C0 11.9244 13.9655 0 27.0891 0C40.2127 0 48 8.80984 48 22.0417Z" fill="#7289DA"/>
<path d="M31.6361 15.4263C30.212 14.76 28.6893 14.2757 27.0973 14C26.9018 14.3535 26.6734 14.8289 26.5159 15.2071C24.8236 14.9526 23.1469 14.9526 21.4857 15.2071C21.3283 14.8289 21.0947 14.3535 20.8974 14C19.3037 14.2757 17.7793 14.7617 16.3552 15.4298C13.4828 19.7704 12.7041 24.0032 13.0934 28.1759C14.9986 29.5986 16.8449 30.4628 18.66 31.0284C19.1082 30.4116 19.5079 29.7559 19.8522 29.0649C19.1964 28.8157 18.5683 28.5082 17.9748 28.1512C18.1323 28.0345 18.2863 27.9125 18.4351 27.7871C22.055 29.4802 25.9882 29.4802 29.5648 27.7871C29.7154 27.9125 29.8694 28.0345 30.0251 28.1512C29.4299 28.5099 28.8 28.8174 28.1442 29.0666C28.4885 29.7559 28.8865 30.4134 29.3364 31.0301C31.1533 30.4646 33.0014 29.6004 34.9065 28.1759C35.3633 23.3387 34.1261 19.1448 31.6361 15.4263ZM20.3454 25.6097C19.2587 25.6097 18.3676 24.5952 18.3676 23.3599C18.3676 22.1245 19.2397 21.1083 20.3454 21.1083C21.4511 21.1083 22.3423 22.1227 22.3232 23.3599C22.325 24.5952 21.4511 25.6097 20.3454 25.6097ZM27.6545 25.6097C26.5678 25.6097 25.6767 24.5952 25.6767 23.3599C25.6767 22.1245 26.5488 21.1083 27.6545 21.1083C28.7602 21.1083 29.6514 22.1227 29.6323 23.3599C29.6323 24.5952 28.7602 25.6097 27.6545 25.6097Z" fill="white"/>
</svg>
