<svg width="48" height="46" viewBox="0 0 48 46" fill="none" xmlns="http://www.w3.org/2000/svg">
<path d="M48 22.0417C48 35.2735 35.2226 46 22.099 46C8.97541 46 0 38.3881 0 25.1562C0 11.9244 13.9655 0 27.0891 0C40.2127 0 48 8.80984 48 22.0417Z" fill="#333333"/>
<path d="M23.5 12C17.1491 12 12 17.0024 12 23.1722C12 28.4074 15.7107 32.7878 20.7132 34C20.6595 33.8492 20.625 33.6741 20.625 33.4572V31.5477C20.1583 31.5477 19.3763 31.5477 19.1798 31.5477C18.393 31.5477 17.6935 31.219 17.3542 30.6083C16.9776 29.9296 16.9124 28.8915 15.979 28.2565C15.702 28.0452 15.9129 27.8041 16.232 27.8366C16.8214 27.9986 17.3101 28.3915 17.7701 28.9744C18.2282 29.5581 18.4438 29.6903 19.2996 29.6903C19.7146 29.6903 20.3356 29.667 20.9202 29.5777C21.2345 28.8021 21.7779 28.088 22.442 27.751C18.6125 27.3683 16.785 25.5175 16.785 23.0047C16.785 21.9228 17.2593 20.8763 18.0653 19.9947C17.8008 19.1195 17.4683 17.3347 18.1669 16.6551C19.89 16.6551 20.9317 17.7407 21.1818 18.0339C22.0405 17.7481 22.9835 17.5861 23.9744 17.5861C24.9672 17.5861 25.914 17.7481 26.7746 18.0358C27.0219 17.7444 28.0645 16.6551 29.7915 16.6551C30.493 17.3357 30.1566 19.1279 29.8892 20.0012C30.6904 20.881 31.1619 21.9247 31.1619 23.0047C31.1619 25.5156 29.3372 27.3656 25.5135 27.7501C26.5657 28.2835 27.3333 29.7825 27.3333 30.9118V33.4572C27.3333 33.554 27.3113 33.6239 27.2998 33.7067C31.781 32.1808 35 28.0471 35 23.1722C35 17.0024 29.8509 12 23.5 12Z" fill="white"/>
</svg>
