<svg width="48" height="46" viewBox="0 0 48 46" fill="none" xmlns="http://www.w3.org/2000/svg">
<path d="M48 22.0417C48 35.2735 35.2226 46 22.099 46C8.97541 46 0 38.3881 0 25.1562C0 11.9244 13.9655 0 27.0891 0C40.2127 0 48 8.80984 48 22.0417Z" fill="url(#paint0_linear_0_1)"/>
<path d="M18.8817 14.0253C17.8745 14.1591 16.9413 14.6311 16.2334 15.3671C15.6207 16.0045 15.2227 16.7933 15.0502 17.7125C14.9833 18.0576 14.9833 27.9464 15.0502 28.2915C15.4059 30.1756 16.7406 31.535 18.6141 31.9365C18.8958 31.9963 19.2233 31.9999 24.0021 31.9999C29.6508 31.9999 29.2599 32.0139 30.0065 31.7674C31.3271 31.3272 32.4329 30.1792 32.8202 28.8374C33.0069 28.1965 32.9999 28.4113 32.9999 22.9844C32.9999 17.3568 33.0139 17.7442 32.7674 16.9976C32.3448 15.7263 31.2743 14.6592 29.9959 14.2331C29.2634 13.9901 29.6966 14.0077 24.143 14.0007C21.3433 13.9972 19.019 14.0077 18.8817 14.0253ZM29.2493 15.8812C30.2213 16.1771 30.8728 16.8426 31.1264 17.7935L31.2038 18.0893V27.9147L31.1264 28.2106C30.8658 29.179 30.179 29.8657 29.2106 30.1263L28.9148 30.2038H19.0543L18.7725 30.1228C17.8076 29.8446 17.1596 29.1931 16.8814 28.2317L16.8004 27.9499V18.0541L16.8814 17.7724C17.0892 17.0434 17.5153 16.494 18.1562 16.1242C18.357 16.008 18.8042 15.8601 19.0648 15.8214C19.174 15.8038 21.4525 15.7932 24.1254 15.7967L28.9852 15.8002L29.2493 15.8812Z" fill="white"/>
<path d="M28.2915 17.628C27.9428 17.7231 27.7104 17.9661 27.6329 18.3253C27.5484 18.6986 27.7456 19.1036 28.0978 19.2832C28.9359 19.7093 29.7635 18.762 29.2388 17.9766C29.0451 17.6878 28.6295 17.5364 28.2915 17.628Z" fill="white"/>
<path d="M23.3894 18.533C21.6919 18.7655 20.2692 19.9276 19.741 21.5159C19.5614 22.0617 19.5121 22.3646 19.5121 23.002C19.5121 23.6394 19.5614 23.9423 19.741 24.4882C20.241 25.9813 21.5123 27.0871 23.1217 27.4287C23.5373 27.5168 24.467 27.5168 24.8825 27.4287C26.4954 27.0871 27.7632 25.9849 28.2633 24.4882C28.4429 23.9423 28.4922 23.6394 28.4922 23.002C28.4922 22.5794 28.4746 22.34 28.4288 22.1216C28.2316 21.1954 27.816 20.4171 27.1821 19.7903C26.5483 19.1669 25.7946 18.7655 24.9001 18.5823C24.5656 18.5119 23.731 18.4837 23.3894 18.533ZM24.7417 20.396C25.6749 20.6566 26.3581 21.3433 26.6116 22.2836C26.7208 22.6745 26.7208 23.3295 26.6116 23.7204C26.3581 24.6678 25.6678 25.358 24.7205 25.6116C24.3155 25.7243 23.6676 25.7243 23.2802 25.6116C22.3223 25.3404 21.6603 24.6783 21.3926 23.724C21.2799 23.326 21.2799 22.678 21.3926 22.2801C21.5933 21.5581 22.023 21.0017 22.6639 20.6319C22.8611 20.5193 23.3084 20.3678 23.5725 20.3256C23.8683 20.2798 24.4388 20.315 24.7417 20.396Z" fill="white"/>
<defs>
<linearGradient id="paint0_linear_0_1" x1="0" y1="0" x2="45.9584" y2="47.9566" gradientUnits="userSpaceOnUse">
<stop stop-color="#405DE6"/>
<stop offset="0.108341" stop-color="#5B51D8"/>
<stop offset="0.232375" stop-color="#833AB4"/>
<stop offset="0.352132" stop-color="#C13584"/>
<stop offset="0.471889" stop-color="#E1306C"/>
<stop offset="0.593785" stop-color="#FD1D1D"/>
<stop offset="0.709265" stop-color="#F56040"/>
<stop offset="0.81833" stop-color="#F77737"/>
<stop offset="0.923117" stop-color="#FCAF45"/>
<stop offset="1" stop-color="#FFDC80"/>
</linearGradient>
</defs>
</svg>
