<svg width="48" height="46" viewBox="0 0 48 46" fill="none" xmlns="http://www.w3.org/2000/svg">
<path d="M48 22.0417C48 35.2735 35.2226 46 22.099 46C8.97541 46 0 38.3881 0 25.1562C0 11.9244 13.9655 0 27.0891 0C40.2127 0 48 8.80984 48 22.0417Z" fill="#DB6B48"/>
<g opacity="0.99">
<path fill-rule="evenodd" clip-rule="evenodd" d="M15.4063 16.0024C21.1354 15.9959 26.8646 16.0024 32.5938 16.0219C32.7313 16.048 32.8614 16.0934 32.9844 16.158C30.1409 19.0466 27.2764 21.9174 24.3906 24.7703C24.1297 24.8998 23.8693 24.8998 23.6094 24.7703C20.7236 21.9174 17.8591 19.0466 15.0156 16.158C15.1467 16.0974 15.2769 16.0456 15.4063 16.0024Z" fill="white"/>
<path fill-rule="evenodd" clip-rule="evenodd" d="M14 28.6002C14 24.8676 14 21.1349 14 17.4022C14.0433 17.2738 14.0953 17.1442 14.1563 17.0134C14.1758 16.9737 14.2019 16.9672 14.2344 16.9939C16.2466 18.9904 18.2518 20.9928 20.25 23.0012C18.2518 25.0096 16.2466 27.012 14.2344 29.0085C14.2019 29.0352 14.1758 29.0288 14.1563 28.9891C14.0953 28.8582 14.0433 28.7286 14 28.6002Z" fill="white"/>
<path fill-rule="evenodd" clip-rule="evenodd" d="M34 17.4022C34 21.1349 34 24.8676 34 28.6002C33.9567 28.7286 33.9046 28.8582 33.8438 28.9891C33.8241 29.0288 33.7981 29.0352 33.7656 29.0085C31.7604 27.0126 29.7552 25.0166 27.75 23.0207C29.7411 20.9999 31.7463 18.9909 33.7656 16.9939C33.7981 16.9672 33.8241 16.9737 33.8438 17.0134C33.9046 17.1442 33.9567 17.2738 34 17.4022Z" fill="white"/>
<path fill-rule="evenodd" clip-rule="evenodd" d="M20.9922 23.8177C21.0211 23.8126 21.0471 23.8191 21.0703 23.8372C21.6834 24.4604 22.3084 25.0696 22.9453 25.6646C23.6481 26.1052 24.3513 26.1052 25.0547 25.6646C25.6916 25.0696 26.3166 24.4604 26.9297 23.8372C26.9557 23.8112 26.9818 23.8112 27.0078 23.8372C29.0212 25.8218 31.0134 27.8242 32.9844 29.8445C32.8614 29.909 32.7313 29.9544 32.5938 29.9805C26.8646 30.0065 21.1354 30.0065 15.4063 29.9805C15.2933 29.956 15.1826 29.9236 15.0742 29.8833C15.0251 29.8697 15.0121 29.8438 15.0352 29.8056C17.0146 27.8029 19.0003 25.8069 20.9922 23.8177Z" fill="white"/>
</g>
</svg>
