<svg width="48" height="46" viewBox="0 0 48 46" fill="none" xmlns="http://www.w3.org/2000/svg">
<path d="M48 22.0417C48 35.2735 35.2226 46 22.099 46C8.97541 46 0 38.3881 0 25.1562C0 11.9244 13.9655 0 27.0891 0C40.2127 0 48 8.80984 48 22.0417Z" fill="#B24242"/>
<path d="M22.1082 16.0219C19.0711 16.0845 17.2879 16.2389 16.7285 16.4894C16.2217 16.7189 15.7975 17.1488 15.5459 17.6789C15.2193 18.3676 15.0466 19.8785 15.0053 22.4036C14.9753 24.4196 15.0729 26.2518 15.2794 27.4122C15.5009 28.6768 16.1128 29.3989 17.1677 29.6451C18.1288 29.8705 20.6779 30.0041 24.0228 29.9999C27.4391 29.9999 29.8718 29.8747 30.8929 29.6451C31.227 29.57 31.7 29.3071 31.9478 29.065C32.2069 28.8104 32.4696 28.3721 32.5785 28.0132C32.8788 27.0282 33.0628 24.1608 32.9802 21.7817C32.8676 18.5512 32.6311 17.537 31.8314 16.865C31.4635 16.5562 31.2082 16.4435 30.6376 16.3308C29.9318 16.1972 28.235 16.0803 26.4442 16.0386C24.3494 15.9927 23.5986 15.9885 22.1082 16.0219ZM24.5296 21.4979C25.7948 22.3076 26.8272 22.988 26.8272 23.0088C26.8234 23.0422 22.2621 25.9931 22.2133 25.9931C22.2095 25.9931 22.202 24.6491 22.202 23.0088C22.202 21.3685 22.2095 20.0246 22.2171 20.0246C22.2246 20.0246 23.2645 20.6882 24.5296 21.4979Z" fill="white"/>
</svg>
